PathFileType	4	(X/Y/Z)	Patient4_TMGait_0pt7_02_left_15.trc.trc
DataRate	CameraRate	NumFrames	NumMarkers	Units	OrigDataRate	OrigDataStartFrame	OrigNumFrames
83.832335329341	83.832335329341	6	33	mm	83.832335329341	36	       141
Frame#	Time	Sacral			L.Shoulder			Chest			R.Shoulder			Neck			R.ASIS			L.ASIS			R.Thigh.Superior			R.Thigh.Lateral			R.Thigh.Inferior			R.Patella			L.Thigh.Superior			L.Thigh.Lateral			L.Thigh.Inferior			L.Patella			L.Shank.Superior			L.Shank.Lateral			L.Shank.Inferior			R.Shank.Superior			R.Shank.Lateral			R.Shank.Inferior			R.Heel			R.Midfoot.Superior			R.Midfoot.Lateral			R.Toe			L.Heel			L.Midfoot.Lateral			L.Midfoot.Superior			L.Toe			L.Elbow			L.Wrist			R.Elbow			R.Wrist			
		X1	Y1	Z1	X2	Y2	Z2	X3	Y3	Z3	X4	Y4	Z4	X5	Y5	Z5	X6	Y6	Z6	X7	Y7	Z7	X8	Y8	Z8	X9	Y9	Z9	X10	Y10	Z10	X11	Y11	Z11	X12	Y12	Z12	X13	Y13	Z13	X14	Y14	Z14	X15	Y15	Z15	X16	Y16	Z16	X17	Y17	Z17	X18	Y18	Z18	X19	Y19	Z19	X20	Y20	Z20	X21	Y21	Z21	X22	Y22	Z22	X23	Y23	Z23	X24	Y24	Z24	X25	Y25	Z25	X26	Y26	Z26	X27	Y27	Z27	X28	Y28	Z28	X29	Y29	Z29	X30	Y30	Z30	X31	Y31	Z31	X32	Y32	Z32	X33	Y33	Z33	

36	17.257500000000	799.999296638159	1006.289616359614	479.879411069230	963.505388872928	1428.585548285918	295.287263802134	1084.597147997273	1353.029238814444	441.648238590110	1023.923003815396	1430.826530658546	623.178247468664	985.901282785829	1487.169685718755	449.087462846272	1024.656389524904	932.211230846192	587.421962152700	1004.754419557894	952.351444706460	313.079585896456	1020.923797568288	719.319127182339	573.714699073294	914.425575492726	629.139708090165	636.758729068010	982.305644486354	556.072851485242	566.902652248428	958.354240710830	457.384837874466	583.716789659935	1078.907572679579	767.846083627092	347.597518083634	1014.885871081087	637.327032709874	283.946170561895	1114.781761065466	574.911630056793	344.335130189046	1129.147406722890	503.962149702360	351.134436836839	1108.347081421583	428.841137321738	344.208245882227	1029.960844062542	306.000296026875	294.855457335726	1096.071588535445	199.833882647319	361.671634489772	889.688340230421	389.057780633742	590.114170964702	775.672963708096	332.047613804383	649.751596371373	777.704641447600	222.260934243721	597.163151944954	588.724970290792	112.998215978455	563.721284743532	765.412772269665	108.080847235457	610.539649301244	659.875072615366	72.856908007585	639.168561988662	858.478274154296	35.027431852992	637.041063346854	983.956449574574	39.015623234148	405.302634089075	1056.755828689120	36.784919867564	323.093539385435	1139.822986223765	97.969693516975	348.398306055100	1268.164795518314	45.612433474149	318.529508079766	804.136776207962	1117.876721275090	199.860320568960	749.925741624190	864.374213691475	205.073940422356	1147.344640949416	1114.343550773235	733.743303522290	1300.608289524251	1276.190800062734	627.518041784317	
37	17.269428571429	800.334913635845	1007.524131642530	476.331642154946	964.944721100361	1429.993337640190	292.443567286036	1085.565801479523	1354.204786251071	439.060225666491	1024.422466639599	1431.909476871177	620.494407250440	986.893649084789	1488.358460114834	446.285221795898	1024.972094189421	933.432628028744	583.951843592707	1005.567874842378	953.533155808742	309.881171703093	1024.871497606504	720.802581746442	571.201072199522	920.425840554808	629.055506540929	634.680784046695	990.080263317910	556.612558669841	565.171607210716	966.908735511728	456.325431735020	583.478071574716	1078.815700025630	767.453358697025	343.987659249175	1012.436995591266	637.159367243499	281.999480693789	1111.914902407662	574.026910859044	342.223792309707	1125.514959052304	503.263080310277	349.938112112984	1104.120994414829	428.223855764083	343.167905484900	1024.728923125156	305.994994812758	294.004174771226	1089.352583652885	199.456703778071	361.480455106560	895.802279539029	389.234283796047	589.681571661011	779.599587696521	336.464715316458	648.999826022641	778.479722618056	226.210895992020	597.514585886016	586.201011395667	124.988107206434	564.059540016171	762.114781873378	110.793837480567	611.446182461864	654.964270893911	80.777917061949	639.355598613559	850.312637243892	34.063730887162	637.248178609552	975.710840453186	38.954587374253	405.236267399122	1048.481782144260	36.792664095589	323.000834650759	1131.559676489580	97.993371696261	348.369601594052	1259.924163047220	45.499036347762	318.326057115616	809.638378677792	1116.871235600046	195.295437966229	765.461135995216	861.333703637397	199.468538325275	1138.138558535942	1111.592945379720	733.351266744549	1295.679866520803	1269.768233346647	628.160387221184	
38	17.281357142857	800.460024071822	1008.497429138662	472.869193182869	966.371912052777	1431.204293973016	289.568520462668	1086.360562759474	1355.244529601226	436.602142711741	1024.510540434640	1432.842734346957	617.872906539960	987.640122153837	1489.390633885287	443.459136941044	1025.148563527021	934.526272650853	580.709224084720	1006.282156159148	954.464009302826	306.926418276843	1029.360943001638	722.351460519991	568.760893039424	927.275667226702	628.794601118475	632.600031413496	998.740634443924	557.196363505522	563.262228770244	976.420214247404	455.328515296413	582.812997717528	1078.399516323736	766.657203811274	340.643340582565	1009.838835210131	636.864938451005	280.072886714639	1108.737998133076	573.009186941195	340.370724323246	1121.527521774946	502.412798774484	348.801733850736	1099.575254425712	427.487396923478	342.124044285232	1019.253693415681	305.814646614481	293.189629117621	1082.518055866523	198.998720425785	361.288560758822	902.936604845764	389.424129787090	588.903828077885	784.701529307422	341.079447692682	647.999537744310	780.198670318976	230.533372426153	597.566830609195	584.930842412000	138.038538366338	564.072053071885	759.477010577773	114.116106288355	612.103417820910	650.910915126949	89.858264082426	639.339175625002	842.326539974153	32.978472937568	637.534473093203	967.431649002506	38.876751947095	405.233689782460	1040.165499442553	36.741502112949	322.963533015453	1123.289910231111	97.919509301330	348.387327708119	1251.664505925255	45.226594986937	318.180274532490	815.359039739906	1115.677256581812	190.517832077270	782.091596490378	858.354907466481	193.757425006785	1127.898447575865	1108.776314538125	732.918203064447	1291.219065063703	1261.731157588061	629.052520419584	
39	17.293285714286	800.368167490793	1009.212548710270	469.538488852319	967.779466021557	1432.188551887898	286.692121259858	1086.976771642475	1356.109832892075	434.300884374705	1024.217661820374	1433.621003325004	615.337913844396	988.165174428042	1490.260176500643	440.638131048317	1025.161721096031	935.470297209090	577.719327790122	1006.837698052105	955.167330172232	304.207191569918	1034.291596176743	724.018420759239	566.358967070743	934.912380685238	628.449405727232	630.509355138528	1008.176832265525	557.918395179410	561.141458550917	986.825862356403	454.493862832250	581.692862086162	1077.649405333930	765.606481402242	337.607133891195	1007.178943501637	636.549894436477	278.129345152160	1105.319294326671	571.945855670091	338.710983456528	1117.255109773720	501.472812221679	347.649717578382	1094.780431577658	426.673789933192	341.037846296461	1013.594186304983	305.513587334051	292.352124755717	1075.598009911187	198.488683651853	361.052394891052	911.051598679633	389.707363216232	587.752317131429	790.965632984582	345.902940619800	646.723142305917	782.910830350110	235.256617594253	597.269437719626	585.046965774891	152.021854519258	563.709440956030	757.626179332691	118.114760908214	612.437618180047	647.900684349630	100.053635142171	639.074201911229	834.713222928871	31.875492957626	637.850555605187	959.126169874090	38.802539268977	405.253789582914	1031.821570435142	36.651185370745	322.949410399300	1115.025048109798	97.772341996094	348.420753155165	1243.397696459161	44.826830684738	318.083005072899	821.424766535460	1114.229484346328	185.534806433425	799.746175914836	855.492149380895	187.983873339178	1116.721725994858	1105.927357778458	732.379986455133	1287.181416308538	1251.997091999869	630.194215580852	
40	17.305214285714	800.063889424637	1009.696580809415	466.368448056984	969.146143745584	1432.937757764279	283.849251072212	1087.409224906940	1356.785910994071	432.176048445465	1023.582383886699	1434.255077041691	612.911583964843	988.499432807158	1490.976399574673	437.856744269206	1024.992225188630	936.263803432700	574.991448949714	1007.190973352538	955.688950306273	301.705190908317	1039.534701598550	725.870056213021	563.947996005393	943.237730922816	628.139303494235	628.411359618199	1018.247647156110	558.891394241616	558.801382807228	998.043338031506	453.938601447582	580.141925901854	1076.576208631673	764.439194208220	334.865181393681	1004.476116195576	636.283757580547	276.156308777005	1101.704627012946	570.896717263019	337.159821682904	1112.756516048041	500.497058266085	346.426288913082	1089.792170489714	425.823581629188	339.884064865540	1007.788079366444	305.144698813663	291.459815685777	1068.612966307156	197.955441276974	360.743199015426	920.087640653579	390.178251873088	586.238788054793	798.346702885439	350.941320118967	645.162823134520	786.661029725319	240.388632465567	596.594722659840	586.647593554454	166.716201338037	562.941739795999	756.711807467500	122.808467213326	612.376144280983	646.125055150423	111.219302491381	638.519916421276	827.737976393020	30.912790410952	638.112526877768	950.803292696235	38.745592908131	405.265003631777	1023.463103155946	36.540792857019	322.933146729604	1106.769930536988	97.580533873725	348.443346627381	1235.130571222228	44.345644735795	318.018704984944	827.972760950647	1112.487617472084	180.362282346914	818.350086936555	852.802249492220	182.189807618735	1104.733698041296	1103.102363366917	731.679925842703	1283.476617889213	1240.492239993891	631.583291533845	
41	17.317142857143	799.558186404382	1009.997259627204	463.370153446006	970.440850713462	1433.463805822350	281.074502224868	1087.653234784494	1357.283269270581	430.238062036134	1022.645002753785	1434.770238621453	610.610920042394	988.674677089225	1491.560985119587	435.147815333376	1024.627745062771	936.925144383488	572.522150629695	1007.320270838402	956.088972350367	299.400254458671	1044.946465863806	727.977319072698	561.476794479091	952.121441196545	627.996765713258	626.318964527866	1028.789905791652	560.233354085142	556.264588523537	1009.969507641948	453.786892385664	578.231264044471	1075.208984205532	763.263127741905	332.354236882862	1001.689585325923	636.100554672946	274.164184307057	1097.911695661804	569.893004271316	335.630923762996	1108.067332103397	499.527106153460	345.100876357743	1084.641967358550	424.973054053961	338.654109714319	1001.850193526219	304.754019534093	290.504390268501	1061.571034078341	197.425489952768	360.348371078185	929.966045961935	390.935314355934	584.414115831094	806.768492205221	356.187760222703	643.331333809776	791.485020895494	245.906816044339	595.540987098653	589.784573647433	181.802056036238	561.763409865977	756.897804461851	128.155762324626	611.853844127448	645.766739295529	123.101563714783	637.643017656339	821.736712587851	30.288613299530	638.205799532897	942.470704325302	38.713689472976	405.246920357998	1015.099899736019	36.426419502049	322.897985043917	1098.523951116636	97.371124987905	348.435686528836	1226.865043392952	43.830960592810	317.970350286140	835.135975988627	1110.444386568518	175.028285063173	837.821353024352	850.346741615653	176.417121889206	1092.087171158428	1100.383062623182	730.773759564893	1279.968853936726	1227.166292015065	633.214404965281	
